<svg xmlns="http://www.w3.org/2000/svg" width="2309" height="162" viewBox="0 0 2309 162" fill="none"><path d="M2017.36 40.3581H2124.74L2308 1.00077L2179.83 1.00055M2017.36 40.3581L1900.2 68.7261H1715.43M2017.36 40.3581L2179.83 1.00055M2017.36 40.3581H1802.58M1802.58 40.3581L1715.43 68.7261M1802.58 40.3581L1923.5 1.00081M1802.58 40.3581H1587.83M1587.83 40.3581H1480.44M1587.83 40.3581L1530.63 68.7269L1438.24 68.7263M1587.83 40.3581L1667.16 1.00081M1480.44 40.3581L1438.24 68.7263M1480.44 40.3581L1373.07 40.3581M1480.44 40.3581L1539.01 1.00081M1438.24 68.7263L1406.36 90.1486M1438.24 68.7263L1345.83 68.7263M1406.36 90.1486L1325.28 90.1484M1406.36 90.1486L1487.44 90.1484L1530.63 68.7261H1715.43M1406.36 90.1486L1319.62 148.441H1269.33M1269.33 148.441H1219.05M1269.33 148.441L1325.28 90.1484M1269.33 148.441L1257.28 161M1219.05 148.441H1168.76M1219.05 148.441L1213.63 161M1219.05 148.441L1244.2 90.1484M1168.76 148.441L1169.4 155.165L1169.97 161M1168.76 148.441L1167.99 140.62L1164.73 106.903L1158.32 40.3582M1168.76 148.441H1068.17M1068.17 148.441H1017.89L919.884 90.1486M1068.17 148.441L1082.65 161M1068.17 148.441L1048.51 131.395L1035.79 120.351L1000.96 90.1484M919.884 90.1486L883.854 68.7263M919.884 90.1486L838.804 90.1484L791.466 68.7261H606.669M919.884 90.1486L1000.96 90.1484M883.854 68.7263L836.176 40.3581M883.854 68.7263L791.467 68.7269L728.788 40.3581M883.854 68.7263L976.264 68.7263M836.176 40.3581H728.788M836.176 40.3581L770.007 1.00081M836.176 40.3581L943.542 40.3581M728.788 40.3581L641.839 1.00081M728.788 40.3581H299.258M299.258 40.3581H191.892L1 1.00077L129.167 1.00055M299.258 40.3581L129.167 1.00055M299.258 40.3581L421.896 68.7261H606.669M129.167 1.00055L641.839 1.00081M606.669 68.7261L385.503 1M606.669 68.7261L811.34 131.394H870.62L895.886 140.619H1548.94L1582.18 131.394H1641.46L1687.06 120.35H1752.2L1814.84 106.902M1000.96 90.1484H1082.04M1000.96 90.1484L976.264 68.7263M1082.04 90.1484H1244.2M1082.04 90.1484L1026.34 1.00081M1082.04 90.1484L1107.81 131.395L1113.59 140.62L1118.46 148.441L1126.32 161M1244.2 90.1484H1325.28M1244.2 90.1484L1253.45 68.7269M1325.28 90.1484L1345.83 68.7263M1715.43 68.7261L1522.88 131.395M2179.83 1.00055L1923.5 1.00081M257.336 1.00266L659.107 106.905H803.568L840.391 120.353H1491.68L1525.92 106.905H1670.38L2051.66 1.00266M191.893 40.3589L329.488 68.7271H421.897L514.488 90.1495H757.726M757.726 90.1495H838.805L875.81 106.903M757.726 90.1495L803.568 106.904L875.81 106.903M757.726 90.1495L513.672 1.00165M875.81 106.903L929.923 131.396H1404.3L1453.68 106.903M875.81 106.903H1453.68M1453.68 106.903L1487.44 90.1495H1568.52M1453.68 106.903L1525.92 106.904L1568.52 90.1495M1568.52 90.1495H1811.76L1900.2 68.7271H1992.61L2124.74 40.3589M1568.52 90.1495L1795.33 1.00165M1923.5 1.00081H1667.16M1667.16 1.00081H1539.01M1539.01 1.00081H1410.85M1410.85 1.00081L1373.07 40.3581M1410.85 1.00081L1282.68 1.00126M1373.07 40.3581L1345.83 68.7263M1373.07 40.3581L1158.32 40.3582M1345.83 68.7263L1253.45 68.7269M1257.28 161H1213.63M1257.28 161L1300.94 161M1213.63 161H1169.97M1169.97 161H1126.32M1126.32 161H1082.65M1082.65 161L1038.99 161M976.264 68.7263L943.542 40.3581M976.264 68.7263L1253.45 68.7269M943.542 40.3581L898.175 1.00081M943.542 40.3581L1158.32 40.3582M898.175 1.00081H770.007M898.175 1.00081L1154.51 1.00126M770.007 1.00081H641.839M1282.68 1.00126H1154.51M1282.68 1.00126L1253.45 68.7269M1154.51 1.00126L1158.32 40.3582M329.487 68.7246L433.408 90.147H514.487L586.865 106.901H659.107L710.138 120.349H840.391L870.62 131.393H929.923L967.607 148.44H1017.89L1029.2 155.163H1309.62L1319.62 148.44H1369.9L1404.3 131.393H1463.58L1491.68 120.349H1621.93L1670.38 106.901H1742.62L1811.76 90.147H1892.84L1992.61 68.7246M433.409 90.1487L514.624 106.903M514.624 106.903H586.866L645.013 120.351M514.624 106.903L579.886 120.351M645.013 120.351H710.139L752.038 131.395M645.013 120.351H579.886M645.013 120.351L692.736 131.395M752.038 131.395H811.341L841.456 140.62M752.038 131.395H692.736M752.038 131.395L787.049 140.62M841.456 140.62H895.887L917.324 148.441M841.456 140.62H787.049M841.456 140.62L867.018 148.441M917.324 148.441H967.608L982.451 155.165M917.324 148.441H867.018M917.324 148.441L935.724 155.165H982.451M982.451 155.165L995.344 161M982.451 155.165H1029.2L1038.99 161M995.344 161H1038.99M995.344 161H951.677M579.886 120.351L633.455 131.395M692.736 131.395L633.455 131.395M692.736 131.395L732.618 140.62M787.049 140.62L732.618 140.62M787.049 140.62L816.733 148.441M867.018 148.441L816.733 148.441M867.018 148.441L888.975 155.165M633.455 131.395L678.209 140.62M732.618 140.62L678.209 140.62M732.618 140.62L766.449 148.441M816.733 148.441L766.449 148.441M816.733 148.441L842.226 155.165M888.975 155.165L908.032 161M888.975 155.165L842.226 155.165M888.975 155.165L935.723 155.165L951.677 161M908.032 161H951.677M908.032 161H864.365M678.209 140.62L716.165 148.441M766.449 148.441H716.165M766.449 148.441L795.5 155.165M842.226 155.165H795.5M842.226 155.165L864.365 161M1475.57 161H1519.21M1519.21 161H1562.88L1590.05 155.165M1519.21 161L1543.3 155.165H1590.05M1590.05 155.165L1621.34 148.441M1300.94 161L1309.62 155.165H1356.35M1300.94 161H1344.59M1356.35 155.165L1369.9 148.441H1420.18M1356.35 155.165L1344.59 161M1356.35 155.165L1403.1 155.165M1420.18 148.441L1403.1 155.165M1420.18 148.441L1470.49 148.441M1420.18 148.441L1463.58 131.395H1522.88M1522.88 131.395L1582.18 131.395L1621.93 120.351H1687.06L1742.62 106.903H1814.84L1892.84 90.1487M1522.88 131.395L1470.49 148.441M1388.26 161H1431.9M1388.26 161H1344.59M1388.26 161L1403.1 155.165M1431.9 161H1475.57L1496.57 155.165M1431.9 161L1449.82 155.165M1496.57 155.165L1520.77 148.441M1496.57 155.165H1449.82M1496.57 155.165H1543.3L1571.06 148.441M1520.77 148.441H1571.06M1520.77 148.441L1470.49 148.441M1520.77 148.441L1548.94 140.62L1603.37 140.62M1571.06 148.441L1603.37 140.62M1571.06 148.441H1621.34L1657.8 140.62M1603.37 140.62H1657.8M1603.37 140.62L1641.46 131.395L1700.77 131.395M1657.8 140.62L1700.77 131.395M1700.77 131.395L1752.21 120.351M1403.1 155.165L1449.82 155.165M1470.49 148.441L1449.82 155.165M716.165 148.441L748.751 155.165M795.5 155.165L820.721 161M795.5 155.165H748.751M820.721 161H864.365M820.721 161H777.054L748.751 155.165" stroke="url(#paint0_linear_52_491)" stroke-opacity="0.16" stroke-linecap="round" stroke-linejoin="round"></path><defs><linearGradient id="paint0_linear_52_491" x1="1154.5" y1="161" x2="1154.5" y2="1" gradientUnits="userSpaceOnUse"><stop stop-opacity="0"></stop><stop offset="1"></stop></linearGradient></defs></svg>