<svg width="32" height="32" viewBox="0 0 32 32" fill="none" xmlns="http://www.w3.org/2000/svg">
<g clip-path="url(#clip0_308_1495)">
<path d="M8.17454 7.28506L7.2352 6.10915C5.94796 4.50184 6.20889 2.15351 7.81971 0.866271L7.87882 0.817565C9.48613 -0.469672 11.8345 -0.208745 13.1217 1.40204L14.0576 2.57447L8.17454 7.28506Z" fill="#181D27"/>
<path d="M13.8906 17.169C13.8593 17.4542 13.7166 17.7256 13.4766 17.9204C12.993 18.3066 12.2868 18.2301 11.9006 17.7465L5.44702 9.67515C5.05389 9.18461 5.14087 8.46445 5.64532 8.08176C6.13239 7.71298 6.83167 7.81735 7.21436 8.29398L7.84406 9.08024L8.92256 8.21744L8.91908 8.21396L14.7986 3.49989L29.8419 22.304L23.9589 27.0146L10.3176 9.96739L9.23915 10.8302L13.6505 16.3444C13.8453 16.5844 13.9219 16.8837 13.8906 17.169Z" fill="#181D27"/>
<path d="M24.9365 27.8843L30.4786 23.4451C30.569 23.7547 30.6142 24.0261 30.6142 24.0261L31.8841 30.1074C31.9745 30.5458 31.5292 30.9041 31.1222 30.7162L25.4653 28.1417C25.4688 28.1417 25.2183 28.0374 24.9365 27.8843Z" fill="#181D27"/>
<path d="M0.910355 28.9732C0.959061 28.9732 1.00429 28.9767 1.05303 28.9837L9.60094 30.09C10.0393 30.1457 10.3454 29.6656 10.1089 29.2898C9.98019 29.0915 9.85494 28.8897 9.7297 28.688C9.39919 28.1522 9.84103 27.439 10.4533 27.439C10.4951 27.439 10.5368 27.4425 10.5821 27.4495L21.7845 29.1333L23.1239 29.3351L26.7769 29.8848C27.1909 29.9474 27.4692 30.2987 27.4344 30.7197C27.4205 30.9076 27.344 31.085 27.2222 31.2172C27.0796 31.3738 26.8813 31.4608 26.6656 31.4608C26.6238 31.4608 26.5821 31.4573 26.5368 31.4503L13.1843 29.4429C12.7286 29.3734 12.4155 29.8883 12.6834 30.264C12.7704 30.3823 12.8573 30.504 12.9443 30.6223C13.1843 30.9494 13.1287 31.4956 12.8504 31.7774C12.7077 31.9235 12.5268 32 12.3355 32C12.3146 32 12.2903 32 12.2694 31.9965H12.2659H12.2624L0.736403 30.5284H0.732925H0.72941C0.531141 30.4971 0.357191 30.3823 0.242348 30.2048C0.117104 30.01 0.0719128 29.7699 0.127541 29.5543C0.218065 29.2028 0.524218 28.9732 0.910355 28.9732Z" fill="#181D27"/>
</g>
<defs>
<clipPath id="clip0_308_1495">
<rect width="32" height="32" fill="white" transform="matrix(-1 0 0 1 32 0)"/>
</clipPath>
</defs>
</svg>
