<svg width="36" height="36" viewBox="0 0 36 36" fill="none" xmlns="http://www.w3.org/2000/svg">
<path d="M18.588 0.872031L20.194 5.33203C21.978 10.282 25.876 14.18 30.826 15.964L35.286 17.57C35.688 17.716 35.688 18.286 35.286 18.43L30.826 20.036C25.876 21.82 21.978 25.718 20.194 30.668L18.588 35.128C18.442 35.53 17.872 35.53 17.728 35.128L16.122 30.668C14.338 25.718 10.44 21.82 5.49002 20.036L1.03002 18.43C0.628016 18.284 0.628016 17.714 1.03002 17.57L5.49002 15.964C10.44 14.18 14.338 10.282 16.122 5.33203L17.728 0.872031C17.872 0.468031 18.442 0.468031 18.588 0.872031Z" fill="url(#paint0_linear_308_1449)"/>
<defs>
<linearGradient id="paint0_linear_308_1449" x1="35.6972" y1="0.569029" x2="-3.76704" y2="29.242" gradientUnits="userSpaceOnUse">
<stop stop-color="#7C63FD"/>
<stop offset="1" stop-color="#52369C"/>
</linearGradient>
</defs>
</svg>
