<svg width="12" height="12" viewBox="0 0 12 12" fill="none" xmlns="http://www.w3.org/2000/svg">
<path d="M10.1475 4.89793L6.39746 8.64793C6.3452 8.70037 6.28311 8.74198 6.21473 8.77037C6.14636 8.79876 6.07306 8.81337 5.99902 8.81337C5.92499 8.81337 5.85169 8.79876 5.78331 8.77037C5.71494 8.74198 5.65284 8.70037 5.60058 8.64793L1.85059 4.89793C1.74491 4.79226 1.68555 4.64893 1.68555 4.49949C1.68555 4.35005 1.74491 4.20673 1.85059 4.10105C1.95626 3.99538 2.09958 3.93602 2.24902 3.93602C2.39847 3.93602 2.54179 3.99538 2.64746 4.10105L5.99949 7.45308L9.35152 4.10059C9.45719 3.99491 9.60052 3.93555 9.74996 3.93555C9.8994 3.93555 10.0427 3.99491 10.1484 4.10059C10.2541 4.20626 10.3134 4.34958 10.3134 4.49902C10.3134 4.64847 10.2541 4.79179 10.1484 4.89746L10.1475 4.89793Z" fill="black"/>
</svg>
